mtllib .mtl
g enemyBalloon
v -2.046921 0.000000 9.304283
v -1.981888 0.065033 9.304283
v -2.046921 0.084351 9.304283
v -1.178680 0.500488 9.304283
v -1.594986 0.778381 9.304283
v 0.001236 1.352768 9.304283
v -0.842422 1.878326 9.304283
v -0.003113 2.182037 9.304283
v -0.523224 2.443359 9.304283
v -0.024185 2.572693 9.304283
v -0.401535 2.718124 9.304283
v -0.059875 2.918137 9.304283
v -0.314056 2.983154 9.304283
v -0.112366 3.221481 9.304283
v -0.267654 3.235214 9.304283
v 0.114761 3.692551 9.304283
v -0.268951 3.471069 9.304283
v 0.013184 14.062378 9.304283
v -9.243637 8.720551 9.304283
v -8.001556 19.033783 9.304283
v -9.297958 19.098846 9.304283
v -8.258179 19.195786 9.304283
v -9.271362 19.349915 9.304283
v -8.520477 19.378555 9.304283
v -9.227249 19.571655 9.304283
v -9.162552 19.756302 9.304283
v -8.729660 19.547318 9.304283
v -9.074310 19.896271 9.304283
v 0.010132 14.576096 9.304283
v -0.099854 25.399445 9.304283
v 0.011795 14.572906 9.304283
v 9.297958 19.896271 9.304283
v 0.071259 13.961121 9.304283
v 9.297958 8.720551 9.304283
v 0.069382 3.217316 9.304283
v -0.007614 1.118210 9.304283
v 1.931702 0.000000 9.304283
v -0.124939 3.267807 9.304283
v -2.046921 0.000000 9.304283
v -2.046921 0.084351 9.304283
v -2.046921 0.000000 -9.304283
v -2.046921 0.084351 -9.304283
v -2.046921 0.084351 9.304283
v -1.594986 0.778381 9.304283
v -0.842422 1.878326 9.304283
v -0.523224 2.443359 9.304283
v -0.401535 2.718124 9.304283
v -0.314056 2.983154 9.304283
v -0.267654 3.235214 9.304283
v -0.268951 3.471069 9.304283
v -2.046921 0.084351 -9.304283
v -1.594986 0.778381 -9.304283
v -0.842422 1.878326 -9.304283
v -0.523224 2.443359 -9.304283
v -0.401535 2.718124 -9.304283
v -0.314056 2.983154 -9.304283
v -0.267654 3.235214 -9.304283
v -0.268951 3.471069 -9.304283
v -0.268951 3.471069 9.304283
v -9.243637 8.720551 9.304283
v -0.268951 3.471069 -9.304283
v -9.243637 8.720551 -9.304283
v -9.243637 8.720551 9.304283
v -9.297958 19.098846 9.304283
v -9.271362 19.349915 9.304283
v -9.227249 19.571655 9.304283
v -9.162552 19.756302 9.304283
v -9.074310 19.896271 9.304283
v -0.099854 25.399445 9.304283
v -9.243637 8.720551 -9.304283
v -9.297958 19.098846 -9.304283
v -9.271362 19.349915 -9.304283
v -9.227249 19.571655 -9.304283
v -9.162552 19.756302 -9.304283
v -9.074310 19.896271 -9.304283
v -0.099854 25.399445 -9.304283
v -0.099854 25.399445 9.304283
v 9.297958 19.896271 9.304283
v -0.099854 25.399445 -9.304283
v 9.297958 19.896271 -9.304283
v 9.297958 19.896271 9.304283
v 9.297958 8.720551 9.304283
v 9.297958 19.896271 -9.304283
v 9.297958 8.720551 -9.304283
v 9.297958 8.720551 9.304283
v 0.069382 3.217316 9.304283
v 9.297958 8.720551 -9.304283
v 0.069382 3.217316 -9.304283
v 0.069382 3.217316 9.304283
v 1.931702 0.000000 9.304283
v 0.069382 3.217316 -9.304283
v 1.931702 0.000000 -9.304283
v 1.931702 0.000000 9.304283
v -2.046921 0.000000 9.304283
v 1.931702 0.000000 -9.304283
v -2.046921 0.000000 -9.304283
v -2.046921 0.000000 -9.304283
v -1.981888 0.065033 -9.304283
v -2.046921 0.084351 -9.304283
v -1.178680 0.500488 -9.304283
v -1.594986 0.778381 -9.304283
v 0.001236 1.352768 -9.304283
v -0.842422 1.878326 -9.304283
v -0.003113 2.182037 -9.304283
v -0.523224 2.443359 -9.304283
v -0.024185 2.572693 -9.304283
v -0.401535 2.718124 -9.304283
v -0.059875 2.918137 -9.304283
v -0.314056 2.983154 -9.304283
v -0.112366 3.221481 -9.304283
v -0.267654 3.235214 -9.304283
v 0.114761 3.692551 -9.304283
v -0.268951 3.471069 -9.304283
v 0.013184 14.062378 -9.304283
v -9.243637 8.720551 -9.304283
v -8.001556 19.033783 -9.304283
v -9.297958 19.098846 -9.304283
v -8.258179 19.195786 -9.304283
v -9.271362 19.349915 -9.304283
v -8.520477 19.378555 -9.304283
v -9.227249 19.571655 -9.304283
v -9.162552 19.756302 -9.304283
v -8.729660 19.547318 -9.304283
v -9.074310 19.896271 -9.304283
v 0.010132 14.576096 -9.304283
v -0.099854 25.399445 -9.304283
v 0.011795 14.572906 -9.304283
v 9.297958 19.896271 -9.304283
v 0.071259 13.961121 -9.304283
v 9.297958 8.720551 -9.304283
v 0.069382 3.217316 -9.304283
v -0.007614 1.118210 -9.304283
v 1.931702 0.000000 -9.304283
v -0.124939 3.267807 -9.304283
vt 0.389926 0.000000
vt 0.393424 0.002561
vt 0.389926 0.003321
vt 0.436616 0.019705
vt 0.414230 0.030646
vt 0.500066 0.053259
vt 0.454698 0.073952
vt 0.499833 0.085909
vt 0.471863 0.096197
vt 0.498699 0.101289
vt 0.478407 0.107015
vt 0.496780 0.114890
vt 0.483111 0.117450
vt 0.493958 0.126832
vt 0.485607 0.127374
vt 0.506171 0.145379
vt 0.485537 0.136659
vt 0.500709 0.553649
vt 0.002922 0.343337
vt 0.069715 0.749378
vt 0.000000 0.751940
vt 0.055915 0.755756
vt 0.001430 0.761825
vt 0.041809 0.762952
vt 0.003803 0.770555
vt 0.007282 0.777824
vt 0.030561 0.769597
vt 0.012027 0.783335
vt 0.500544 0.573874
vt 0.494630 1.000000
vt 0.500634 0.573749
vt 1.000000 0.783335
vt 0.503832 0.549663
vt 1.000000 0.343337
vt 0.503731 0.126669
vt 0.499591 0.044025
vt 0.603878 0.000000
vt 0.493281 0.128656
vt 1.000000 1.000000
vt 0.998899 1.000000
vt 1.000000 0.000000
vt 0.998899 0.000000
vt 0.998899 1.000000
vt 0.988089 1.000000
vt 0.970694 1.000000
vt 0.962224 1.000000
vt 0.958301 1.000000
vt 0.954659 1.000000
vt 0.951313 1.000000
vt 0.948235 1.000000
vt 0.998899 0.000000
vt 0.988089 0.000000
vt 0.970694 0.000000
vt 0.962224 0.000000
vt 0.958301 0.000000
vt 0.954659 0.000000
vt 0.951313 0.000000
vt 0.948235 0.000000
vt 0.948235 1.000000
vt 0.812529 1.000000
vt 0.948235 0.000000
vt 0.812529 0.000000
vt 0.812529 1.000000
vt 0.677069 1.000000
vt 0.673774 1.000000
vt 0.670823 1.000000
vt 0.668269 1.000000
vt 0.666109 1.000000
vt 0.528705 1.000000
vt 0.812529 0.000000
vt 0.677069 0.000000
vt 0.673774 0.000000
vt 0.670823 0.000000
vt 0.668269 0.000000
vt 0.666109 0.000000
vt 0.528705 0.000000
vt 0.528705 1.000000
vt 0.386560 1.000000
vt 0.528705 0.000000
vt 0.386560 0.000000
vt 0.386560 1.000000
vt 0.240693 1.000000
vt 0.386560 0.000000
vt 0.240693 0.000000
vt 0.240693 1.000000
vt 0.100450 1.000000
vt 0.240693 0.000000
vt 0.100450 0.000000
vt 0.100450 1.000000
vt 0.051930 1.000000
vt 0.100450 0.000000
vt 0.051930 0.000000
vt 0.051930 1.000000
vt 0.000000 1.000000
vt 0.051930 0.000000
vt 0.000000 0.000000
vt 0.389926 0.000000
vt 0.393424 0.002561
vt 0.389926 0.003321
vt 0.436616 0.019705
vt 0.414230 0.030646
vt 0.500066 0.053259
vt 0.454698 0.073952
vt 0.499833 0.085909
vt 0.471863 0.096197
vt 0.498699 0.101289
vt 0.478407 0.107015
vt 0.496780 0.114890
vt 0.483111 0.117450
vt 0.493958 0.126832
vt 0.485607 0.127374
vt 0.506171 0.145379
vt 0.485537 0.136659
vt 0.500709 0.553649
vt 0.002922 0.343337
vt 0.069715 0.749378
vt 0.000000 0.751940
vt 0.055915 0.755756
vt 0.001430 0.761825
vt 0.041809 0.762952
vt 0.003803 0.770555
vt 0.007282 0.777824
vt 0.030561 0.769597
vt 0.012027 0.783335
vt 0.500544 0.573874
vt 0.494630 1.000000
vt 0.500634 0.573749
vt 1.000000 0.783335
vt 0.503832 0.549663
vt 1.000000 0.343337
vt 0.503731 0.126669
vt 0.499591 0.044025
vt 0.603878 0.000000
vt 0.493281 0.128656
vn 0.000000 0.000000 1.000000
vn 0.000000 0.000000 1.000000
vn 0.000000 0.000000 1.000000
vn 0.000000 0.000000 1.000000
vn 0.000000 0.000000 1.000000
vn 0.000000 0.000000 1.000000
vn 0.000000 0.000000 1.000000
vn 0.000000 0.000000 1.000000
vn 0.000000 0.000000 0.998307
vn 0.000000 0.000000 1.000000
vn 0.000000 0.000000 1.000000
vn 0.000000 0.000000 0.998307
vn 0.000000 0.000000 1.000000
vn 0.000000 0.000000 1.000000
vn 0.000000 0.000000 1.000000
vn 0.000000 0.000000 1.000000
vn 0.000000 0.000000 1.000000
vn 0.000000 0.000000 1.000000
vn 0.000000 0.000000 1.000000
vn 0.000000 0.000000 1.000000
vn 0.000000 0.000000 0.998307
vn 0.000000 0.000000 1.000000
vn 0.000000 0.000000 1.000000
vn 0.000000 0.000000 1.000000
vn 0.000000 0.000000 1.000000
vn 0.000000 0.000000 1.000000
vn 0.000000 0.000000 0.998307
vn 0.000000 0.000000 1.000000
vn 0.000000 0.000000 1.000000
vn 0.000000 0.000000 1.000000
vn 0.000000 0.000000 1.000000
vn 0.000000 0.000000 1.000000
vn 0.000000 0.000000 1.000000
vn 0.000000 0.000000 1.000000
vn 0.000000 0.000000 1.000000
vn 0.000000 0.000000 0.998307
vn 0.000000 0.000000 1.000000
vn 0.000000 0.000000 1.000000
vn -1.000000 0.000000 0.000000
vn -1.000000 0.000000 0.000000
vn -1.000000 0.000000 0.000000
vn -1.000000 0.000000 0.000000
vn -0.837990 0.545686 0.000000
vn -0.830302 0.554270 0.000000
vn -0.847339 0.527857 0.000000
vn -0.893563 0.448937 0.000000
vn -0.933098 0.359623 0.000000
vn -0.967164 0.247408 0.000000
vn -0.994419 0.088022 0.000000
vn -0.998292 -0.005479 0.000000
vn -0.837990 0.545686 0.000000
vn -0.830302 0.554270 0.000000
vn -0.847339 0.527857 0.000000
vn -0.893563 0.448937 0.000000
vn -0.933098 0.359623 0.000000
vn -0.967164 0.247408 0.000000
vn -0.994419 0.088022 0.000000
vn -0.998292 -0.005479 0.000000
vn -0.504039 -0.861720 0.000000
vn -0.504039 -0.861720 0.000000
vn -0.504039 -0.861720 0.000000
vn -0.504039 -0.861720 0.000000
vn -0.999986 -0.005235 0.000000
vn -0.997052 0.050039 0.000000
vn -0.986953 0.150137 0.000000
vn -0.963009 0.263118 0.000000
vn -0.900561 0.434730 0.000000
vn -0.701526 0.710267 0.000000
vn -0.521863 0.851044 0.000000
vn -0.999986 -0.005235 0.000000
vn -0.997052 0.050039 0.000000
vn -0.986953 0.150137 0.000000
vn -0.963009 0.263118 0.000000
vn -0.900561 0.434730 0.000000
vn -0.701526 0.710267 0.000000
vn -0.521863 0.851044 0.000000
vn 0.505316 0.862934 0.000000
vn 0.505316 0.862934 0.000000
vn 0.505316 0.862934 0.000000
vn 0.505316 0.862934 0.000000
vn 1.000000 0.000000 0.000000
vn 1.000000 0.000000 0.000000
vn 1.000000 0.000000 0.000000
vn 1.000000 0.000000 0.000000
vn 0.512173 -0.858882 0.000000
vn 0.512173 -0.858882 0.000000
vn 0.512173 -0.858882 0.000000
vn 0.512173 -0.858882 0.000000
vn 0.863999 0.500122 0.000000
vn 0.863999 0.500122 0.000000
vn 0.863999 0.500122 0.000000
vn 0.863999 0.500122 0.000000
vn 0.000000 -1.000000 0.000000
vn 0.000000 -1.000000 0.000000
vn 0.000000 -1.000000 0.000000
vn 0.000000 -1.000000 0.000000
vn 0.000000 0.000000 -1.000000
vn 0.000000 0.000000 -1.000000
vn 0.000000 0.000000 -1.000000
vn 0.000000 0.000000 -1.000000
vn 0.000000 0.000000 -1.000000
vn 0.000000 0.000000 -1.000000
vn 0.000000 0.000000 -1.000000
vn 0.000000 0.000000 -1.000000
vn 0.000000 0.000000 -0.998307
vn 0.000000 0.000000 -1.000000
vn 0.000000 0.000000 -1.000000
vn 0.000000 0.000000 -0.998307
vn 0.000000 0.000000 -1.000000
vn 0.000000 0.000000 -1.000000
vn 0.000000 0.000000 -1.000000
vn 0.000000 0.000000 -1.000000
vn 0.000000 0.000000 -1.000000
vn 0.000000 0.000000 -1.000000
vn 0.000000 0.000000 -1.000000
vn 0.000000 0.000000 -1.000000
vn 0.000000 0.000000 -0.998307
vn 0.000000 0.000000 -1.000000
vn 0.000000 0.000000 -1.000000
vn 0.000000 0.000000 -1.000000
vn 0.000000 0.000000 -1.000000
vn 0.000000 0.000000 -1.000000
vn 0.000000 0.000000 -0.998307
vn 0.000000 0.000000 -1.000000
vn 0.000000 0.000000 -1.000000
vn 0.000000 0.000000 -1.000000
vn 0.000000 0.000000 -1.000000
vn 0.000000 0.000000 -1.000000
vn 0.000000 0.000000 -1.000000
vn 0.000000 0.000000 -1.000000
vn 0.000000 0.000000 -1.000000
vn 0.000000 0.000000 -0.998307
vn 0.000000 0.000000 -1.000000
vn 0.000000 0.000000 -1.000000
usemtl enemyBalloon Front Inflation Material
f 3/3/3 1/1/1 2/2/2
f 4/4/4 5/5/5 2/2/2
f 6/6/6 7/7/7 36/36/36
f 9/9/9 7/7/7 8/8/8
f 11/11/11 9/9/9 10/10/10
f 13/13/13 11/11/11 12/12/12
f 15/15/15 13/13/13 14/14/14
f 16/16/16 17/17/17 38/38/38
f 18/18/18 19/19/19 33/33/33
f 31/31/31 29/29/29 19/19/19
f 23/23/23 21/21/21 22/22/22
f 25/25/25 23/23/23 24/24/24
f 26/26/26 25/25/25 27/27/27
f 28/28/28 26/26/26 27/27/27
f 29/29/29 30/30/30 20/20/20
f 31/31/31 32/32/32 29/29/29
f 18/18/18 33/33/33 32/32/32
f 38/38/38 35/35/35 16/16/16
f 36/36/36 37/37/37 6/6/6
f 4/4/4 2/2/2 37/37/37
f 3/3/3 2/2/2 5/5/5
f 36/36/36 7/7/7 4/4/4
f 5/5/5 4/4/4 7/7/7
f 6/6/6 8/8/8 7/7/7
f 8/8/8 10/10/10 9/9/9
f 10/10/10 12/12/12 11/11/11
f 12/12/12 14/14/14 13/13/13
f 17/17/17 15/15/15 38/38/38
f 14/14/14 38/38/38 15/15/15
f 33/33/33 19/19/19 16/16/16
f 17/17/17 16/16/16 19/19/19
f 18/18/18 31/31/31 19/19/19
f 29/29/29 20/20/20 19/19/19
f 21/21/21 19/19/19 20/20/20
f 20/20/20 22/22/22 21/21/21
f 22/22/22 24/24/24 23/23/23
f 24/24/24 27/27/27 25/25/25
f 20/20/20 30/30/30 22/22/22
f 22/22/22 30/30/30 24/24/24
f 24/24/24 30/30/30 27/27/27
f 28/28/28 27/27/27 30/30/30
f 30/30/30 29/29/29 32/32/32
f 31/31/31 18/18/18 32/32/32
f 34/34/34 32/32/32 33/33/33
f 35/35/35 34/34/34 16/16/16
f 33/33/33 16/16/16 34/34/34
f 6/6/6 37/37/37 8/8/8
f 8/8/8 37/37/37 10/10/10
f 10/10/10 37/37/37 12/12/12
f 37/37/37 35/35/35 12/12/12
f 12/12/12 35/35/35 14/14/14
f 38/38/38 14/14/14 35/35/35
f 36/36/36 4/4/4 37/37/37
f 1/1/1 37/37/37 2/2/2
usemtl enemyBalloon Front Bevel Material
f 1/1/1 1/1/1 1/1/1
usemtl enemyBalloon Extrusion Material
f 41/41/41 39/39/39 40/40/40
f 41/41/41 40/40/40 42/42/42
f 51/51/51 43/43/43 44/44/44
f 51/51/51 44/44/44 52/52/52
f 52/52/52 44/44/44 45/45/45
f 52/52/52 45/45/45 53/53/53
f 53/53/53 45/45/45 46/46/46
f 53/53/53 46/46/46 54/54/54
f 54/54/54 46/46/46 47/47/47
f 54/54/54 47/47/47 55/55/55
f 55/55/55 47/47/47 48/48/48
f 55/55/55 48/48/48 56/56/56
f 56/56/56 48/48/48 49/49/49
f 56/56/56 49/49/49 57/57/57
f 57/57/57 49/49/49 50/50/50
f 57/57/57 50/50/50 58/58/58
f 61/61/61 59/59/59 60/60/60
f 61/61/61 60/60/60 62/62/62
f 70/70/70 63/63/63 64/64/64
f 70/70/70 64/64/64 71/71/71
f 71/71/71 64/64/64 65/65/65
f 71/71/71 65/65/65 72/72/72
f 72/72/72 65/65/65 66/66/66
f 72/72/72 66/66/66 73/73/73
f 73/73/73 66/66/66 67/67/67
f 73/73/73 67/67/67 74/74/74
f 74/74/74 67/67/67 68/68/68
f 74/74/74 68/68/68 75/75/75
f 75/75/75 68/68/68 69/69/69
f 75/75/75 69/69/69 76/76/76
f 79/79/79 77/77/77 78/78/78
f 79/79/79 78/78/78 80/80/80
f 83/83/83 81/81/81 82/82/82
f 83/83/83 82/82/82 84/84/84
f 87/87/87 85/85/85 86/86/86
f 87/87/87 86/86/86 88/88/88
f 91/91/91 89/89/89 90/90/90
f 91/91/91 90/90/90 92/92/92
f 95/95/95 93/93/93 94/94/94
f 95/95/95 94/94/94 96/96/96
usemtl enemyBalloon Back Bevel Material
f 1/1/1 1/1/1 1/1/1
usemtl enemyBalloon Back Inflation Material
f 97/97/97 99/99/99 98/98/98
f 101/101/101 100/100/100 98/98/98
f 103/103/103 102/102/102 132/132/132
f 103/103/103 105/105/105 104/104/104
f 105/105/105 107/107/107 106/106/106
f 107/107/107 109/109/109 108/108/108
f 109/109/109 111/111/111 110/110/110
f 113/113/113 112/112/112 134/134/134
f 115/115/115 114/114/114 129/129/129
f 125/125/125 127/127/127 115/115/115
f 117/117/117 119/119/119 118/118/118
f 119/119/119 121/121/121 120/120/120
f 121/121/121 122/122/122 123/123/123
f 122/122/122 124/124/124 123/123/123
f 126/126/126 125/125/125 116/116/116
f 128/128/128 127/127/127 125/125/125
f 129/129/129 114/114/114 128/128/128
f 131/131/131 134/134/134 112/112/112
f 133/133/133 132/132/132 102/102/102
f 98/98/98 100/100/100 133/133/133
f 98/98/98 99/99/99 101/101/101
f 103/103/103 132/132/132 100/100/100
f 100/100/100 101/101/101 103/103/103
f 104/104/104 102/102/102 103/103/103
f 106/106/106 104/104/104 105/105/105
f 108/108/108 106/106/106 107/107/107
f 110/110/110 108/108/108 109/109/109
f 111/111/111 113/113/113 134/134/134
f 134/134/134 110/110/110 111/111/111
f 115/115/115 129/129/129 112/112/112
f 112/112/112 113/113/113 115/115/115
f 127/127/127 114/114/114 115/115/115
f 116/116/116 125/125/125 115/115/115
f 115/115/115 117/117/117 116/116/116
f 118/118/118 116/116/116 117/117/117
f 120/120/120 118/118/118 119/119/119
f 123/123/123 120/120/120 121/121/121
f 126/126/126 116/116/116 118/118/118
f 126/126/126 118/118/118 120/120/120
f 126/126/126 120/120/120 123/123/123
f 123/123/123 124/124/124 126/126/126
f 125/125/125 126/126/126 128/128/128
f 114/114/114 127/127/127 128/128/128
f 128/128/128 130/130/130 129/129/129
f 130/130/130 131/131/131 112/112/112
f 112/112/112 129/129/129 130/130/130
f 133/133/133 102/102/102 104/104/104
f 133/133/133 104/104/104 106/106/106
f 133/133/133 106/106/106 108/108/108
f 131/131/131 133/133/133 108/108/108
f 131/131/131 108/108/108 110/110/110
f 110/110/110 134/134/134 131/131/131
f 100/100/100 132/132/132 133/133/133
f 133/133/133 97/97/97 98/98/98
